999
Fixture de regressao: bloco com entidades dentro. O parser DXF do upstream
999
FALHA ao abrir arquivos assim - isolado por bisseccao contra um desenho real.
999
Bloco com conteudo e como se define todo simbolo e carimbo, entao DXF de
999
origem real nao abre hoje. A leitura DXF nativa de K2 deve corrigir isto.
0
SECTION
2
HEADER
9
$ACADVER
1
AC1009
9
$INSBASE
10
0.0
20
0.0
30
0.0
9
$EXTMIN
10
0.0
20
0.0
30
0.0
9
$EXTMAX
10
100.0
20
100.0
30
0.0
0
ENDSEC
0
SECTION
2
BLOCKS
0
BLOCK
8
0
70
0
2
MARCO
3
MARCO
10
0.0
20
0.0
30
0.0
0
LINE
8
0
10
0.0
20
0.0
30
0.0
11
5.0
21
5.0
31
0.0
0
ENDBLK
8
0
0
ENDSEC
0
SECTION
2
ENTITIES
0
LINE
8
0
10
0.0
20
0.0
30
0.0
11
100.0
21
100.0
31
0.0
0
CIRCLE
8
0
10
50.0
20
50.0
30
0.0
40
40.0
0
ENDSEC
0
EOF
