999
Fixture: POLYLINE de estilo antigo (POLYLINE/VERTEX/SEQEND), como o DXF R12
999
a produz. O upstream abre; o kernel ainda nao a modela e deve conta-la como
999
nao suportada, sem impedir a abertura.
0
SECTION
2
HEADER
9
$ACADVER
1
AC1009
9
$INSBASE
10
0.0
20
0.0
30
0.0
9
$EXTMIN
10
0.0
20
0.0
30
0.0
9
$EXTMAX
10
100.0
20
100.0
30
0.0
0
ENDSEC
0
SECTION
2
ENTITIES
0
LINE
8
0
10
0.0
20
0.0
30
0.0
11
100.0
21
100.0
31
0.0
0
CIRCLE
8
0
10
50.0
20
50.0
30
0.0
40
40.0
0
POLYLINE
8
0
66
1
10
0.0
20
0.0
30
0.0
70
0
0
VERTEX
8
0
10
0.0
20
0.0
30
0.0
0
VERTEX
8
0
10
50.0
20
20.0
30
0.0
0
VERTEX
8
0
10
80.0
20
60.0
30
0.0
0
SEQEND
8
0
0
ENDSEC
0
EOF
