999
Fixture do MT-K1-16: uma LINE que o kernel modela e uma SOLID que ainda nao,
999
para verificar que entidades nao suportadas sao reportadas sem impedir a
999
abertura do desenho.
0
SECTION
2
HEADER
9
$ACADVER
1
AC1009
9
$INSBASE
10
0.0
20
0.0
30
0.0
9
$EXTMIN
10
0.0
20
0.0
30
0.0
9
$EXTMAX
10
100.0
20
100.0
30
0.0
0
ENDSEC
0
SECTION
2
ENTITIES
0
LINE
8
0
10
0.0
20
0.0
30
0.0
11
100.0
21
100.0
31
0.0
0
SOLID
8
0
10
10.0
20
10.0
30
0.0
11
40.0
21
10.0
31
0.0
12
10.0
22
40.0
32
0.0
13
40.0
23
40.0
33
0.0
0
ENDSEC
0
EOF
